<svg xmlns="http://www.w3.org/2000/svg" xmlns:xlink="http://www.w3.org/1999/xlink" viewBox="0 0 1000 1000"><defs><style>.ee5e3c50-78e1-4e85-8d07-9b01be0424db{isolation:isolate;}.b4043538-82f8-4147-b0fb-7f29abea2054{fill:#094448;}.e9c1ab74-26ab-4290-97b5-300488695dcf{fill:#231f20;mix-blend-mode:multiply;opacity:0.3;}.b696ccc1-d171-4aa9-a82e-4b8daa38b198{fill:url(#a33680a3-2800-4ba7-986d-aa5a571d20fc);}.e330b3ec-cf54-406c-8e72-3bbdb158b010{fill:#0a131e;}.b0f87ed5-2b2f-4fa4-8702-d6a553896d45{mix-blend-mode:screen;opacity:0.53;}.af1a6701-a5f7-49d6-af61-7f34921991f7{fill:url(#ff554cbf-8168-4ad7-bfa5-5ec3af015d7f);}.fa76f537-80e9-466d-bf69-26332e90ef12{fill:#97d8c4;}.b9f1e4dc-a9c7-454f-b9da-60aa93b823a6{fill:#8ca0ab;}.edb7e322-57c1-4ffa-bf7b-a6df3541e55b{fill:#bbada0;}.b9b37243-e849-4086-a28f-198992067afe{fill:#ed254e;}</style><linearGradient id="a33680a3-2800-4ba7-986d-aa5a571d20fc" x1="214.08" y1="499.29" x2="768.02" y2="499.29" gradientTransform="translate(11.42 -10.95) rotate(1.26)" gradientUnits="userSpaceOnUse"><stop offset="0" stop-color="#fff"/><stop offset="1" stop-color="#e6e8f2"/></linearGradient><linearGradient id="ff554cbf-8168-4ad7-bfa5-5ec3af015d7f" x1="350.97" y1="77.41" x2="503.89" y2="275.72" gradientTransform="translate(11.42 -10.95) rotate(1.26)" gradientUnits="userSpaceOnUse"><stop offset="0" stop-color="#daf0ff"/><stop offset="0.21" stop-color="#9eaeb9"/><stop offset="0.42" stop-color="#667178"/><stop offset="0.61" stop-color="#3a4044"/><stop offset="0.78" stop-color="#1b1d1f"/><stop offset="0.91" stop-color="#070808"/><stop offset="1"/></linearGradient></defs><g class="ee5e3c50-78e1-4e85-8d07-9b01be0424db"><g id="b32840d7-5d77-4da5-aa3b-3a7c873140ca" data-name="Layer 1"><rect class="b4043538-82f8-4147-b0fb-7f29abea2054" width="1000" height="1000"/><path class="e9c1ab74-26ab-4290-97b5-300488695dcf" d="M775.57,157.28,284,148.45a27.41,27.41,0,0,0-27.91,26.92l-12.46,693a27.42,27.42,0,0,0,26.92,27.91l491.62,8.84A27.43,27.43,0,0,0,790,878.21l12.46-693A27.44,27.44,0,0,0,775.57,157.28Z"/><path class="b696ccc1-d171-4aa9-a82e-4b8daa38b198" d="M726.35,135l-460-9c-24.22-.47-44.17,14.77-44.56,34L208.22,834.42c-.31,15.23,14.95,27.87,34.08,28.24l483.36,9.44c19.13.37,34.88-11.67,35.19-26.9l13.51-670.42C774.79,153.33,753.3,135.52,726.35,135Z"/><path class="e330b3ec-cf54-406c-8e72-3bbdb158b010" d="M730.11,134.31,266,126c-24.88-.44-45.38,15.28-45.73,35.08l-3.47,193,554.13,10,3.47-193C774.76,151.2,755,134.76,730.11,134.31Z"/><g class="b0f87ed5-2b2f-4fa4-8702-d6a553896d45"><path class="af1a6701-a5f7-49d6-af61-7f34921991f7" d="M730.11,134.31,266,126c-24.88-.44-45.38,15.28-45.73,35.08l-3.47,193,554.13,10,3.47-193C774.76,151.2,755,134.76,730.11,134.31Z"/></g><rect class="fa76f537-80e9-466d-bf69-26332e90ef12" x="436.68" y="22.86" width="120.83" height="482.85" transform="translate(222.97 756.02) rotate(-88.86)"/><rect class="b9f1e4dc-a9c7-454f-b9da-60aa93b823a6" x="662.13" y="107.86" width="21.49" height="131.83" transform="translate(485.41 842.97) rotate(-88.83)"/><rect class="fa76f537-80e9-466d-bf69-26332e90ef12" x="593.65" y="375.99" width="46.51" height="63.9" transform="translate(196.87 1016.67) rotate(-88.87)"/><rect class="fa76f537-80e9-466d-bf69-26332e90ef12" x="677.64" y="376.35" width="46.51" height="66.45" transform="translate(277.55 1102.24) rotate(-88.87)"/><rect class="e330b3ec-cf54-406c-8e72-3bbdb158b010" x="679.91" y="460.64" width="44.4" height="63.87" transform="translate(195.78 1184.83) rotate(-88.87)"/><rect class="e330b3ec-cf54-406c-8e72-3bbdb158b010" x="596.77" y="459.02" width="44.4" height="63.87" transform="translate(115.9 1100.12) rotate(-88.87)"/><rect class="e330b3ec-cf54-406c-8e72-3bbdb158b010" x="515.58" y="457.43" width="44.4" height="63.87" transform="translate(37.9 1017.39) rotate(-88.87)"/><rect class="e330b3ec-cf54-406c-8e72-3bbdb158b010" x="432.27" y="455.81" width="44.4" height="63.87" transform="translate(-42.14 932.5) rotate(-88.87)"/><rect class="e330b3ec-cf54-406c-8e72-3bbdb158b010" x="345.44" y="454.11" width="44.4" height="63.87" transform="translate(-125.56 844.04) rotate(-88.87)"/><rect class="e330b3ec-cf54-406c-8e72-3bbdb158b010" x="261" y="452.46" width="44.4" height="63.87" transform="translate(-206.69 757.98) rotate(-88.87)"/><rect class="e330b3ec-cf54-406c-8e72-3bbdb158b010" x="675.02" y="543.22" width="50.83" height="63.87" transform="translate(111.11 1263.71) rotate(-88.83)"/><rect class="e330b3ec-cf54-406c-8e72-3bbdb158b010" x="591.88" y="541.59" width="50.83" height="63.87" transform="translate(31.29 1178.99) rotate(-88.83)"/><rect class="edb7e322-57c1-4ffa-bf7b-a6df3541e55b" x="510.69" y="540.01" width="50.83" height="63.87" transform="translate(-46.66 1096.27) rotate(-88.83)"/><rect class="edb7e322-57c1-4ffa-bf7b-a6df3541e55b" x="427.39" y="538.38" width="50.83" height="63.87" transform="translate(-126.64 1011.39) rotate(-88.83)"/><rect class="edb7e322-57c1-4ffa-bf7b-a6df3541e55b" x="340.56" y="536.69" width="50.83" height="63.87" transform="translate(-210 922.92) rotate(-88.83)"/><rect class="e330b3ec-cf54-406c-8e72-3bbdb158b010" x="256.12" y="535.04" width="50.83" height="63.87" transform="translate(-291.06 836.89) rotate(-88.83)"/><rect class="e330b3ec-cf54-406c-8e72-3bbdb158b010" x="673.58" y="613.99" width="50.83" height="63.87" transform="translate(38.93 1331.59) rotate(-88.83)"/><rect class="e330b3ec-cf54-406c-8e72-3bbdb158b010" x="590.44" y="612.37" width="50.83" height="63.87" transform="translate(-40.89 1246.88) rotate(-88.83)"/><rect class="edb7e322-57c1-4ffa-bf7b-a6df3541e55b" x="510.74" y="610.81" width="50.83" height="63.87" transform="matrix(0.02, -1, 1, 0.02, -117.4, 1165.68)"/><rect class="edb7e322-57c1-4ffa-bf7b-a6df3541e55b" x="426.69" y="608.43" width="50.83" height="65.36" transform="translate(-198.1 1080.03) rotate(-88.83)"/><rect class="edb7e322-57c1-4ffa-bf7b-a6df3541e55b" x="340.61" y="607.49" width="50.83" height="63.87" transform="translate(-280.74 992.32) rotate(-88.83)"/><rect class="e330b3ec-cf54-406c-8e72-3bbdb158b010" x="254.67" y="605.82" width="50.83" height="63.87" transform="translate(-363.24 904.77) rotate(-88.83)"/><rect class="edb7e322-57c1-4ffa-bf7b-a6df3541e55b" x="509.3" y="681.59" width="50.83" height="63.87" transform="translate(-189.58 1233.57) rotate(-88.83)"/><rect class="edb7e322-57c1-4ffa-bf7b-a6df3541e55b" x="425.99" y="679.97" width="50.83" height="63.87" transform="translate(-269.56 1148.68) rotate(-88.83)"/><rect class="edb7e322-57c1-4ffa-bf7b-a6df3541e55b" x="339.16" y="678.27" width="50.83" height="63.87" transform="translate(-352.92 1060.21) rotate(-88.83)"/><rect class="b9b37243-e849-4086-a28f-198992067afe" x="253.23" y="676.6" width="50.83" height="63.87" transform="translate(-435.42 972.67) rotate(-88.83)"/><rect class="e330b3ec-cf54-406c-8e72-3bbdb158b010" x="633.67" y="721.64" width="126.26" height="63.87" transform="matrix(0.02, -1, 1, 0.02, -70.84, 1434.84)"/><rect class="e330b3ec-cf54-406c-8e72-3bbdb158b010" x="550.52" y="720.01" width="126.26" height="63.87" transform="translate(-150.66 1350.13) rotate(-88.83)"/><rect class="e330b3ec-cf54-406c-8e72-3bbdb158b010" x="506.28" y="756.13" width="50.83" height="63.87" transform="translate(-267.06 1303.57) rotate(-88.83)"/><rect class="e330b3ec-cf54-406c-8e72-3bbdb158b010" x="422.97" y="754.51" width="50.83" height="63.87" transform="translate(-347.04 1218.69) rotate(-88.83)"/><rect class="e330b3ec-cf54-406c-8e72-3bbdb158b010" x="336.15" y="752.81" width="50.83" height="63.87" transform="translate(-430.4 1130.22) rotate(-88.83)"/><rect class="e330b3ec-cf54-406c-8e72-3bbdb158b010" x="251.71" y="751.17" width="50.83" height="63.87" transform="translate(-511.47 1044.18) rotate(-88.83)"/></g></g></svg>